<svg xmlns="http://www.w3.org/2000/svg" viewBox="0 0 3333.34 2550.87" shape-rendering="geometricPrecision" text-rendering="geometricPrecision" image-rendering="optimizeQuality" fill-rule="evenodd" clip-rule="evenodd"><path d="M197.28 237.45H392.1V0h1138.06v237.45h1604.98v317.61L197.28 413.88V237.45zm1369.05 711.89c152.63 0 291.06 62.11 391.31 161.96 100.26 100.26 161.97 238.28 161.97 391.32 0 111.63-33.28 215.95-90.11 302.82l239.5 261.01-165.21 151.01-230.98-254.11c-87.68 58.45-193.22 92.55-306.48 92.55-152.63 0-291.05-62.11-391.31-161.96-100.27-100.27-161.97-238.28-161.97-391.31 0-152.63 62.11-291.06 161.97-391.32 100.26-100.26 238.28-161.96 391.31-161.96zm318.32 234.97c-81.44-81.44-194.11-132.02-318.32-132.02-124.2 0-236.88 50.57-318.31 132.02-81.44 81.44-132.02 194.11-132.02 318.32 0 124.2 50.57 236.87 132.02 318.31 81.44 81.44 194.11 132.02 318.31 132.02 124.2 0 236.88-50.58 318.32-132.02 81.44-81.44 132.01-194.11 132.01-318.31 0-124.2-50.57-236.88-132.01-318.32zM.01 586.29h3333.34l-246.11 1809.32c-11.5 84.41-70.13 155.25-155.33 155.25H345.48c-85.31 0-146.53-70.37-155.44-155.39L.02 586.29z"/></svg>